<?xml version="1.0" encoding="UTF-8"?>
<svg width="753px" height="331px" viewBox="0 0 753 331" version="1.1" xmlns="http://www.w3.org/2000/svg" xmlns:xlink="http://www.w3.org/1999/xlink">
    <title>Behat</title>
    <desc>Created by Konstantin Kudryashov</desc>
    <defs></defs>
    <g id="Behat" stroke="none" stroke-width="1" fill="none" fill-rule="evenodd">
        <g id="behat" fill="#4A4A4A">
            <path d="M33,116.5 C33,68.7273668 71.7273668,30 119.5,30 C142.467227,30 163.34381,38.951107 178.8315,53.5550717 C187.645986,61.2539129 194.510116,70.9923557 198.996993,82.3487464 C203.503753,92.8256443 206,104.371307 206,116.5 C206,129.542236 201.907341,141.910307 196.738525,153 C194.394426,157.617537 192.523511,160.510923 188.836594,164.567429 C216.136004,178.900033 236,211.828161 236,246.381216 C236,266.179508 230.969955,284.447485 220.570053,299.134857 L195.291462,299.134848 C207.189921,284.976265 214.353663,266.727205 214.353663,246.809743 C214.353663,205.46128 184.125717,175.313889 143.465354,166.006294 L130.516819,162.790587 C130.516819,162.790587 108.503221,157.2724 108.257862,157.211466 C85.1297456,151.46771 71.0604554,128.116007 76.8332209,105.053976 C82.6059863,81.9919442 106.034778,67.9527101 129.162894,73.6964667 C152.291011,79.4402233 166.360301,102.791926 160.587535,125.853957 C159.021287,132.111072 156.155331,137.703994 152.348369,142.417769 L143.417308,135.714261 L150.931119,163.246727 L166.32659,163.034564 L179.572848,162.852018 L171.736828,156.970429 C177.443972,149.734854 181.745571,141.208165 184.125717,131.699552 C193.14322,95.6748857 171.165907,59.1977314 135.038012,50.2255421 C98.9101159,41.2533527 62.3125429,63.1837156 53.2950395,99.2083814 C45.2813267,131.222933 61.7460676,163.594841 90.8671895,176.702255 C66.9076189,190.914992 50.8531323,216.99286 50.8531323,246.809743 C50.8531323,259.56545 53.7913303,271.636865 59.0296307,282.387686 L46.4623942,289.326359 L83.7842493,295.076437 L98.6661793,260.503393 L84.335166,268.415891 C81.3619315,261.821806 79.7077967,254.508394 79.7077967,246.809743 C79.7077967,217.67978 103.389962,194.065283 132.603398,194.065283 C161.816833,194.065283 185.498999,217.67978 185.498999,246.809743 C185.498999,273.675817 165.354801,295.850402 139.305477,299.134848 L33,299.134857 L33,116.5 Z" id="B"></path>
            <path d="M269.400391,147.340866 C278.130903,140.075205 288.414003,136.442429 300.25,136.442429 C313.72663,136.442429 325.328076,141.247068 335.054688,150.856491 C339.859399,155.602609 343.462879,160.890642 345.865234,166.720749 C348.26759,172.550856 349.46875,178.86427 349.46875,185.661179 C349.46875,199.372185 344.664111,210.973631 335.054688,220.465866 C325.328076,230.075289 313.72663,234.879929 300.25,234.879929 C286.656182,234.879929 275.054736,230.075289 265.445312,220.465866 C255.835889,210.856443 251.03125,199.254997 251.03125,185.661179 L251.03125,103.395554 C251.03125,100.758822 251.895499,98.5762263 253.624023,96.847702 C255.352548,95.1191778 257.535143,94.2549286 260.171875,94.2549286 C262.750013,94.2549286 264.932608,95.1191778 266.719727,96.847702 C268.506845,98.5762263 269.400391,100.758822 269.400391,103.395554 C269.400391,103.395554 269.400391,100.758822 269.400391,103.395554 L269.400391,147.340866 Z M312.291016,214.04985 C316.041034,212.409217 319.307603,210.182677 322.09082,207.370163 C324.874037,204.557649 327.071281,201.29108 328.682617,197.570358 C330.293953,193.849637 331.099609,189.87995 331.099609,185.661179 C331.099609,181.442407 330.293953,177.472721 328.682617,173.751999 C327.071281,170.031277 324.874037,166.764708 322.09082,163.952194 C319.307603,161.13968 316.041034,158.91314 312.291016,157.272507 C308.540997,155.631874 304.527365,154.811569 300.25,154.811569 C295.914041,154.811569 291.871112,155.631874 288.121094,157.272507 C284.371075,158.91314 281.119154,161.125032 278.365234,163.908249 C275.611314,166.691466 273.428719,169.958035 271.817383,173.708054 C270.206047,177.458072 269.400391,181.442407 269.400391,185.661179 C269.400391,189.87995 270.206047,193.864285 271.817383,197.614304 C273.428719,201.364322 275.611314,204.630891 278.365234,207.414108 C281.119154,210.197325 284.371075,212.409217 288.121094,214.04985 C291.871112,215.690484 295.914041,216.510788 300.25,216.510788 C304.527365,216.510788 308.540997,215.690484 312.291016,214.04985 Z M436.961914,209.787155 C438.690438,211.515679 439.554688,213.698275 439.554688,216.335007 C439.554688,218.913145 438.67579,221.110388 436.917969,222.926804 C427.835892,230.895593 417.113343,234.879929 404.75,234.879929 C391.156182,234.879929 379.554736,230.075289 369.945312,220.465866 C360.335889,210.856443 355.53125,199.254997 355.53125,185.661179 C355.53125,172.067361 360.335889,160.465914 369.945312,150.856491 C379.554736,141.247068 391.156182,136.442429 404.75,136.442429 C418.22663,136.442429 429.828076,141.247068 439.554688,150.856491 C444.359399,155.602609 447.962879,160.890642 450.365234,166.720749 C452.76759,172.550856 453.96875,178.86427 453.96875,185.661179 C453.96875,188.297911 453.075204,190.480506 451.288086,192.20903 C449.500968,193.937554 447.318372,194.801804 444.740234,194.801804 L375.130859,194.801804 C376.126958,198.024476 377.591787,200.968782 379.525391,203.634811 C381.458994,206.30084 383.729479,208.585974 386.336914,210.49028 C388.944349,212.394587 391.815414,213.874064 394.950195,214.928757 C398.084977,215.983449 401.351546,216.510788 404.75,216.510788 C408.617207,216.510788 412.162093,215.924856 415.384766,214.752975 C418.607438,213.581095 421.595689,211.8233 424.349609,209.479538 C426.107431,208.014687 428.128895,207.252976 430.414062,207.194382 C433.050794,207.194382 435.23339,208.058631 436.961914,209.787155 Z M434.369141,176.520554 C433.373042,173.297881 431.893565,170.353575 429.930664,167.687546 C427.967764,165.021517 425.68263,162.736383 423.075195,160.832077 C420.46776,158.927771 417.596695,157.448293 414.461914,156.3936 C411.327133,155.338908 408.08986,154.811569 404.75,154.811569 C401.41014,154.811569 398.158219,155.338908 394.994141,156.3936 C391.830062,157.448293 388.929701,158.927771 386.292969,160.832077 C383.656237,162.736383 381.371103,165.021517 379.4375,167.687546 C377.503897,170.353575 376.068364,173.297881 375.130859,176.520554 C375.130859,176.520554 376.068364,173.297881 375.130859,176.520554 L434.369141,176.520554 Z M478.3125,225.651413 C478.3125,228.229551 477.418954,230.412146 475.631836,232.199265 C473.844718,233.986383 471.662122,234.879929 469.083984,234.879929 C466.564441,234.879929 464.411142,233.986383 462.624023,232.199265 C460.836905,230.412146 459.943359,228.229551 459.943359,225.651413 L459.943359,103.483444 C459.943359,100.905306 460.836905,98.722711 462.624023,96.9355927 C464.411142,95.1484743 466.564441,94.2549286 469.083984,94.2549286 C471.603528,94.2549286 473.756827,95.1484743 475.543945,96.9355927 C477.331064,98.722711 478.253906,100.905306 478.3125,103.483444 L478.3125,145.670944 C486.105508,139.635758 495.275338,136.61821 505.822266,136.61821 C511.97464,136.61821 517.819308,137.81937 523.356445,140.221725 C528.893582,142.624081 533.771463,145.89065 537.990234,150.02153 C542.209005,154.15241 545.548816,159.015643 548.009766,164.611374 C550.470715,170.207105 551.701172,176.168959 551.701172,182.497116 L551.701172,225.651413 C551.642578,228.229551 550.719735,230.412146 548.932617,232.199265 C547.145499,233.986383 544.9922,234.879929 542.472656,234.879929 C539.953112,234.879929 537.799814,233.986383 536.012695,232.199265 C534.225577,230.412146 533.332031,228.229551 533.332031,225.651413 L533.332031,182.497116 C533.332031,178.747097 532.599617,175.202211 531.134766,171.86235 C529.669915,168.52249 527.692395,165.60748 525.202148,163.117233 C522.711902,160.626986 519.796892,158.649467 516.457031,157.184616 C513.117171,155.719765 509.572284,154.98735 505.822266,154.98735 C502.013653,154.98735 498.454118,155.705117 495.143555,157.140671 C491.832991,158.576225 488.917981,160.553744 486.398438,163.073288 C483.878894,165.592832 481.901374,168.52249 480.46582,171.86235 C479.030266,175.202211 478.3125,178.747097 478.3125,182.497116 C478.3125,182.497116 478.3125,178.747097 478.3125,182.497116 L478.3125,225.651413 Z M637.568359,225.739304 L637.568359,223.981491 C633.173806,227.497134 628.398463,230.192419 623.242188,232.067429 C618.085912,233.942438 612.578154,234.879929 606.71875,234.879929 C593.124932,234.879929 581.523486,230.075289 571.914062,220.465866 C562.304639,210.856443 557.5,199.254997 557.5,185.661179 C557.5,172.067361 562.304639,160.465914 571.914062,150.856491 C581.523486,141.247068 593.124932,136.442429 606.71875,136.442429 C620.19538,136.442429 631.796826,141.247068 641.523438,150.856491 C651.132861,160.465914 655.9375,172.067361 655.9375,185.661179 L655.9375,225.739304 C655.9375,228.258847 655.043954,230.412146 653.256836,232.199265 C651.469718,233.986383 649.316419,234.879929 646.796875,234.879929 C644.218737,234.879929 642.036142,233.986383 640.249023,232.199265 C638.461905,230.412146 637.568359,228.258847 637.568359,225.739304 C637.568359,225.739304 637.568359,228.258847 637.568359,225.739304 Z M606.71875,154.811569 C602.382791,154.811569 598.339862,155.631874 594.589844,157.272507 C590.839825,158.91314 587.587904,161.125032 584.833984,163.908249 C582.080064,166.691466 579.897469,169.958035 578.286133,173.708054 C576.674797,177.458072 575.869141,181.442407 575.869141,185.661179 C575.869141,189.87995 576.674797,193.864285 578.286133,197.614304 C579.897469,201.364322 582.080064,204.630891 584.833984,207.414108 C587.587904,210.197325 590.839825,212.409217 594.589844,214.04985 C598.339862,215.690484 602.382791,216.510788 606.71875,216.510788 C610.996115,216.510788 615.009747,215.690484 618.759766,214.04985 C622.509784,212.409217 625.776353,210.182677 628.55957,207.370163 C631.342787,204.557649 633.540031,201.29108 635.151367,197.570358 C636.762703,193.849637 637.568359,189.87995 637.568359,185.661179 C637.568359,181.442407 636.762703,177.472721 635.151367,173.751999 C633.540031,170.031277 631.342787,166.764708 628.55957,163.952194 C625.776353,161.13968 622.509784,158.91314 618.759766,157.272507 C615.009747,155.631874 610.996115,154.811569 606.71875,154.811569 Z M670.613281,136.442429 L674.744141,136.442429 L674.744141,103.395554 C674.744141,100.87601 675.637686,98.722711 677.424805,96.9355927 C679.211923,95.1484743 681.394518,94.2549286 683.972656,94.2549286 C686.4922,94.2549286 688.645499,95.1484743 690.432617,96.9355927 C692.219735,98.722711 693.113281,100.87601 693.113281,103.395554 L693.113281,136.442429 L704.099609,136.442429 C706.619153,136.442429 708.757804,137.335974 710.515625,139.123093 C712.273446,140.910211 713.152344,143.06351 713.152344,145.583054 C713.152344,148.161191 712.273446,150.343787 710.515625,152.130905 C708.757804,153.918023 706.619153,154.811569 704.099609,154.811569 L693.113281,154.811569 L693.113281,199.020554 C693.113281,210.680768 698.972598,216.510788 710.691406,216.510788 C713.21095,216.510788 715.349601,217.404334 717.107422,219.191452 C718.865243,220.97857 719.744141,223.131869 719.744141,225.651413 C719.744141,228.229551 718.865243,230.412146 717.107422,232.199265 C715.349601,233.986383 713.21095,234.879929 710.691406,234.879929 C686.726443,234.879929 674.744141,222.926923 674.744141,199.020554 L674.744141,154.811569 L670.613281,154.811569 C668.152331,154.811569 666.028329,153.918023 664.241211,152.130905 C662.454093,150.343787 661.560547,148.161191 661.560547,145.583054 C661.560547,143.06351 662.454093,140.910211 664.241211,139.123093 C666.028329,137.335974 668.152331,136.442429 670.613281,136.442429 C670.613281,136.442429 668.152331,136.442429 670.613281,136.442429 Z"></path>
        </g>
    </g>
</svg>